<svg width="100" height="85" viewBox="0 0 100 85" fill="none" xmlns="http://www.w3.org/2000/svg">
<path d="M99.999 73.5242C99.9704 71.6995 99.474 69.9123 98.5584 68.3345L59.09 5.07081C55.9922 0.0521582 49.4125 -1.50443 44.3937 1.59334C42.9905 2.45977 41.8068 3.63903 40.9359 5.03923L1.40366 68.4082C-1.51723 73.5311 0.267747 80.0528 5.39072 82.9744C6.95397 83.8658 8.71687 84.3475 10.5159 84.3754H89.4884C95.3867 84.2807 100.093 79.422 99.9986 73.5238L99.999 73.5242ZM50.5832 70.5394C50.4004 70.5614 50.2161 70.5717 50.0325 70.5709C47.6167 70.557 45.6702 68.5877 45.6842 66.172C45.6966 63.9685 47.3458 62.1182 49.5332 61.8538C51.9314 61.5637 54.1113 63.2731 54.4013 65.6713C54.6906 68.0694 52.9812 70.2493 50.5832 70.5394ZM54.2133 36.9226H54.217L52.9614 51.3618C52.9078 52.7209 52.6097 54.0588 52.0832 55.3129C51.4554 56.5414 49.9508 57.0282 48.7225 56.4004C48.2709 56.1691 47.9001 55.8064 47.6593 55.3592C47.157 54.061 46.8618 52.6923 46.7848 51.3024L45.8456 37.2758C45.6621 34.4532 44.6994 29.8921 46.8545 27.599C48.4949 25.8353 52.3792 25.5321 53.5568 27.9764C54.5642 30.8481 54.7904 33.9348 54.2133 36.9226Z" fill="#A33434"/>
</svg>
