<svg width="184" height="35" viewBox="0 0 184 35" fill="none" xmlns="http://www.w3.org/2000/svg">
<path d="M40.1914 8.02H45.8114C47.3047 8.02 48.4514 8.38 49.2514 9.1C50.0514 9.82 50.4514 10.8733 50.4514 12.26C50.4514 13.2867 50.178 14.16 49.6314 14.88C49.0847 15.5867 48.3114 16.0667 47.3114 16.32L50.3914 22H48.2714L45.2914 16.48H42.2314V22H40.1914V8.02ZM45.4714 14.76C46.3647 14.76 47.0714 14.5533 47.5914 14.14C48.1247 13.7133 48.3914 13.0867 48.3914 12.26C48.3914 11.3533 48.1314 10.7067 47.6114 10.32C47.1047 9.93333 46.3914 9.74 45.4714 9.74H42.2314V14.76H45.4714ZM59.3193 22.3C57.9327 22.3 56.6793 22 55.5593 21.4C54.4393 20.7867 53.5593 19.9267 52.9193 18.82C52.2793 17.7133 51.9593 16.4467 51.9593 15.02C51.9593 13.5933 52.2793 12.3267 52.9193 11.22C53.5593 10.1133 54.4393 9.25333 55.5593 8.64C56.6793 8.02667 57.9327 7.72 59.3193 7.72C60.706 7.72 61.9593 8.02667 63.0793 8.64C64.1993 9.25333 65.0793 10.1133 65.7193 11.22C66.3593 12.3267 66.6793 13.5933 66.6793 15.02C66.6793 16.4467 66.3593 17.7133 65.7193 18.82C65.0793 19.9267 64.1993 20.7867 63.0793 21.4C61.9593 22 60.706 22.3 59.3193 22.3ZM59.3193 20.46C60.306 20.46 61.1993 20.24 61.9993 19.8C62.8127 19.3467 63.4527 18.7133 63.9193 17.9C64.386 17.0733 64.6193 16.1133 64.6193 15.02C64.6193 13.94 64.386 12.9933 63.9193 12.18C63.466 11.3533 62.8393 10.72 62.0393 10.28C61.2393 9.82667 60.346 9.6 59.3593 9.6C58.3593 9.6 57.4527 9.82 56.6393 10.26C55.8393 10.7 55.1993 11.3333 54.7193 12.16C54.2527 12.9867 54.0193 13.94 54.0193 15.02C54.0193 16.1133 54.2527 17.0733 54.7193 17.9C55.186 18.7133 55.8193 19.3467 56.6193 19.8C57.4327 20.24 58.3327 20.46 59.3193 20.46ZM75.5898 22.3C74.1498 22.3 72.8698 22 71.7498 21.4C70.6298 20.8 69.7565 19.9533 69.1298 18.86C68.5031 17.7533 68.1898 16.4733 68.1898 15.02C68.1898 13.5667 68.5031 12.2867 69.1298 11.18C69.7565 10.0733 70.6298 9.22 71.7498 8.62C72.8698 8.02 74.1498 7.72 75.5898 7.72C77.5098 7.72 79.1165 8.20667 80.4098 9.18V11.14C79.2498 10.1133 77.7031 9.6 75.7698 9.6C74.6898 9.6 73.7298 9.82 72.8898 10.26C72.0631 10.7 71.4165 11.3333 70.9498 12.16C70.4831 12.9733 70.2498 13.9267 70.2498 15.02C70.2498 16.1133 70.4831 17.0733 70.9498 17.9C71.4298 18.7267 72.0831 19.36 72.9098 19.8C73.7498 20.24 74.7031 20.46 75.7698 20.46C76.7565 20.46 77.6365 20.3333 78.4098 20.08C79.1965 19.8133 79.9231 19.3933 80.5898 18.82V20.8C79.3898 21.8 77.7231 22.3 75.5898 22.3ZM82.789 8.02H84.829V22H82.789V8.02ZM84.929 14.88L91.309 8.02H93.789L87.409 14.88L94.189 22H91.709L84.929 14.88ZM96.1875 8.02H105.407V9.74H98.2275V14.16H103.587V15.86H98.2275V20.3H105.407V22H96.1875V8.02ZM111.056 9.74H106.716V8.02H117.456V9.74H113.116V22H111.056V9.74ZM125.16 22.3C123.72 22.3 122.44 22 121.32 21.4C120.2 20.8 119.327 19.9533 118.7 18.86C118.073 17.7533 117.76 16.4733 117.76 15.02C117.76 13.5667 118.073 12.2867 118.7 11.18C119.327 10.0733 120.2 9.22 121.32 8.62C122.44 8.02 123.72 7.72 125.16 7.72C127.08 7.72 128.687 8.20667 129.98 9.18V11.14C128.82 10.1133 127.273 9.6 125.34 9.6C124.26 9.6 123.3 9.82 122.46 10.26C121.633 10.7 120.987 11.3333 120.52 12.16C120.053 12.9733 119.82 13.9267 119.82 15.02C119.82 16.1133 120.053 17.0733 120.52 17.9C121 18.7267 121.653 19.36 122.48 19.8C123.32 20.24 124.273 20.46 125.34 20.46C126.327 20.46 127.207 20.3333 127.98 20.08C128.767 19.8133 129.493 19.3933 130.16 18.82V20.8C128.96 21.8 127.293 22.3 125.16 22.3ZM137.032 8.02H138.992L144.572 22H142.492L141.092 18.52H134.912L133.552 22H131.452L137.032 8.02ZM140.532 16.82L138.012 10.28L135.492 16.82H140.532ZM146.773 8.02H152.393C153.887 8.02 155.033 8.38 155.833 9.1C156.633 9.82 157.033 10.8733 157.033 12.26C157.033 13.2867 156.76 14.16 156.213 14.88C155.667 15.5867 154.893 16.0667 153.893 16.32L156.973 22H154.853L151.873 16.48H148.813V22H146.773V8.02ZM152.053 14.76C152.947 14.76 153.653 14.5533 154.173 14.14C154.707 13.7133 154.973 13.0867 154.973 12.26C154.973 11.3533 154.713 10.7067 154.193 10.32C153.687 9.93333 152.973 9.74 152.053 9.74H148.813V14.76H152.053ZM159.234 8.02H163.734C165.241 8.02 166.548 8.3 167.654 8.86C168.761 9.42 169.608 10.22 170.194 11.26C170.794 12.3 171.094 13.5267 171.094 14.94C171.094 17.26 170.421 19.02 169.074 20.22C167.741 21.4067 165.868 22 163.454 22H159.234V8.02ZM163.434 20.3C165.301 20.3 166.701 19.84 167.634 18.92C168.568 18 169.034 16.6733 169.034 14.94C169.034 13.34 168.574 12.0733 167.654 11.14C166.748 10.2067 165.448 9.74 163.754 9.74H161.274V20.3H163.434Z" fill="white"/>
<g clip-path="url(#clip0_501_43)">
<path fill-rule="evenodd" clip-rule="evenodd" d="M27.4144 1.10859L22.9882 0.453111C22.8572 0.426891 22.7263 0.479327 22.6739 0.531766L20.7882 2.99638C20.6572 3.1537 20.6311 3.36345 20.6834 3.54699C20.7358 3.73052 20.5787 3.88785 20.3954 3.86163L18.8501 3.52077C18.6144 3.46833 18.3525 3.54699 18.1953 3.75675L12.0668 11.6226C11.962 11.7798 11.7525 11.8323 11.5692 11.7537L9.23824 10.7049C9.02869 10.6 8.79302 10.6262 8.60969 10.7573L7.43109 11.5701C7.24776 11.7012 6.98588 11.7274 6.77633 11.6226L6.20016 11.3341C5.8335 11.1506 5.38823 11.3604 5.28351 11.7537L4.86444 13.6152C4.75968 14.0609 4.94301 14.5066 5.33585 14.7427L6.22633 15.2932L9.08107 17.05L10.4692 17.9152C10.862 18.1511 11.3597 18.0987 11.7001 17.8103L14.0311 15.7652C14.2144 15.6079 14.5025 15.5554 14.712 15.6865L15.4192 16.0536C15.6549 16.1847 15.943 16.1323 16.1263 15.9487L17.3049 14.8475C17.4882 14.664 17.7763 14.6377 17.9858 14.7427L19.7406 15.5554C20.0025 15.6865 20.3168 15.6079 20.5001 15.3719L21.312 14.3231L27.4668 6.43109C27.7548 6.06403 27.5715 5.51346 27.1001 5.40854L25.7382 5.09393C25.4501 5.04149 25.3191 4.67442 25.5287 4.46467L27.6501 1.81651C27.8596 1.50188 27.7287 1.16103 27.4144 1.10859ZM7.11667 16.9975C6.98567 16.9189 6.85473 17.0499 6.90712 17.181L7.56189 18.9115C7.61427 19.0426 7.61427 19.1737 7.58805 19.3048L7.01189 21.5597C6.98567 21.717 7.03806 21.8743 7.14284 21.9529L8.79281 23.2377C8.94998 23.3426 9.15948 23.3426 9.29042 23.2115L11.019 21.6908C11.1238 21.6121 11.2547 21.5597 11.3595 21.5335L13.3238 21.3237C13.4547 21.2975 13.5071 21.114 13.3761 21.0353L7.11667 16.9975ZM6.14773 22.7658C6.27872 22.7134 6.43583 22.7395 6.54061 22.8182L8.32153 24.1816C8.40014 24.2603 8.45252 24.3652 8.45252 24.4963L8.29536 26.4889C8.26919 26.5938 8.24297 26.6724 8.16442 26.7511L0.490622 34.4596C0.438241 34.5383 0.333477 34.4596 0.385858 34.3809L2.50728 30.8938C2.53347 30.8675 2.50728 30.8151 2.48109 30.7889H2.40252L1.72157 31.0511C1.66919 31.0511 1.643 31.0249 1.61681 30.9986V30.9462L4.57632 23.631C4.6287 23.5523 4.68109 23.4737 4.75966 23.4475L6.14773 22.7658Z" fill="#8257E6"/>
</g>
<defs>
<clipPath id="clip0_501_43">
<rect width="28.0011" height="34.324" fill="white" transform="translate(0 0.258186)"/>
</clipPath>
</defs>
</svg>
