<svg width="58" height="58" viewBox="0 0 58 58" fill="none" xmlns="http://www.w3.org/2000/svg">
<path d="M29.2906 56.7208C44.861 56.7208 57.4985 44.3176 57.4985 28.999C57.4985 13.6803 44.861 1.27716 29.2906 1.27716C13.7201 1.27716 1.08264 13.6803 1.08264 28.999C1.08264 44.3176 13.7201 56.7208 29.2906 56.7208Z" stroke="#F1F1F1"/>
<g clip-path="url(#clip0_3_2)">
<path fill-rule="evenodd" clip-rule="evenodd" d="M43.7281 12.4146L38.9641 11.709C38.8231 11.6808 38.6821 11.7373 38.6257 11.7937L36.5961 14.4464C36.4552 14.6158 36.427 14.8415 36.4833 15.0391C36.5397 15.2366 36.3706 15.406 36.1733 15.3777L34.5101 15.0109C34.2564 14.9544 33.9745 15.0391 33.8053 15.2648L27.209 23.7311C27.0962 23.9003 26.8708 23.9568 26.6734 23.8722L24.1645 22.7433C23.939 22.6304 23.6853 22.6586 23.488 22.7997L22.2195 23.6746C22.0221 23.8157 21.7403 23.8439 21.5147 23.7311L20.8946 23.4206C20.4999 23.2231 20.0207 23.4489 19.908 23.8722L19.4569 25.8758C19.3441 26.3556 19.5415 26.8353 19.9643 27.0893L20.9227 27.6819L23.9954 29.5727L25.4894 30.504C25.9123 30.758 26.4479 30.7016 26.8144 30.3911L29.3232 28.1899C29.5205 28.0206 29.8306 27.9641 30.0562 28.1052L30.8173 28.5004C31.071 28.6415 31.3811 28.585 31.5784 28.3874L32.8469 27.2022C33.0443 27.0046 33.3543 26.9764 33.5799 27.0893L35.4685 27.9641C35.7504 28.1052 36.0887 28.0206 36.286 27.7666L37.1599 26.6378L43.7845 18.1433C44.0945 17.7482 43.8972 17.1557 43.3898 17.0427L41.9239 16.7041C41.6138 16.6477 41.4729 16.2526 41.6984 16.0268L43.9818 13.1765C44.2073 12.8379 44.0663 12.471 43.7281 12.4146ZM21.881 29.5163C21.74 29.4316 21.5991 29.5727 21.6555 29.7138L22.3602 31.5764C22.4166 31.7175 22.4166 31.8586 22.3884 31.9997L21.7683 34.4267C21.74 34.596 21.7964 34.7653 21.9092 34.85L23.6851 36.2328C23.8543 36.3457 24.0798 36.3457 24.2207 36.2046L26.0812 34.5678C26.194 34.4831 26.3349 34.4267 26.4477 34.3985L28.5619 34.1727C28.7028 34.1445 28.7592 33.9469 28.6183 33.8622L21.881 29.5163ZM20.8381 35.7248C20.9791 35.6684 21.1482 35.6966 21.261 35.7813L23.1779 37.2487C23.2625 37.3334 23.3189 37.4463 23.3189 37.5874L23.1497 39.7322C23.1215 39.8451 23.0933 39.9297 23.0088 40.0144L14.7492 48.3112C14.6928 48.3959 14.5801 48.3112 14.6365 48.2266L16.9198 44.4733C16.948 44.445 16.9198 44.3886 16.8916 44.3603H16.8071L16.0741 44.6425C16.0177 44.6425 15.9896 44.6144 15.9614 44.5861V44.5297L19.1468 36.6561C19.2032 36.5714 19.2595 36.4868 19.3441 36.4586L20.8381 35.7248Z" fill="#8257E6"/>
</g>
<defs>
<clipPath id="clip0_3_2">
<rect width="30.1385" height="36.9439" fill="white" transform="translate(14.2212 11.4992)"/>
</clipPath>
</defs>
</svg>
